<svg width="30" height="33" viewBox="0 0 30 33" fill="none" xmlns="http://www.w3.org/2000/svg">
<path d="M13.9322 0.161377C11.3898 0.161377 9.25424 2.29697 9.25424 4.83934H1.11864C0.508475 4.83934 0 5.34782 0 5.95799C0 6.56816 0.508475 7.07663 1.11864 7.07663H2.23729V31.4834C2.23729 32.0936 2.74576 32.6021 3.35593 32.6021H26.6441C27.2542 32.6021 27.7627 32.0936 27.7627 31.4834V7.07663H28.8814C29.4915 7.07663 30 6.56816 30 5.95799C30 5.34782 29.4915 4.83934 28.8814 4.83934H20.7458C20.9492 2.29697 18.8136 0.161377 16.2712 0.161377H13.9322ZM13.9322 2.50036H16.2712C17.5932 2.50036 18.6102 3.51731 18.6102 4.83934H11.5932C11.5932 3.51731 12.6102 2.50036 13.9322 2.50036ZM4.67797 7.17833H25.6271V30.4665H4.67797V7.17833ZM11.5932 11.7546C10.9831 11.7546 10.4746 12.2631 10.4746 12.8732V24.5682C10.4746 25.1783 10.9831 25.6868 11.5932 25.6868C12.2034 25.6868 12.7119 25.1783 12.7119 24.5682V12.9749C12.8136 12.2631 12.3051 11.7546 11.5932 11.7546ZM18.6102 11.7546C18 11.7546 17.4915 12.2631 17.4915 12.8732V24.5682C17.4915 25.1783 18 25.6868 18.6102 25.6868C19.2203 25.6868 19.7288 25.1783 19.7288 24.5682V12.9749C19.7288 12.2631 19.2203 11.7546 18.6102 11.7546Z" fill="black"/>
</svg>
