<svg width="16" height="17" viewBox="0 0 16 17" fill="none" xmlns="http://www.w3.org/2000/svg">
<path d="M12.2366 12.0295C14.5879 9.71951 14.5879 6.01351 12.2366 3.70351C9.88525 1.39351 6.11392 1.39351 3.76325 3.70351C1.41258 6.01351 1.41192 9.71951 3.76325 12.0295" stroke="black" stroke-width="2" stroke-linecap="round" stroke-linejoin="round"/>
<path fill-rule="evenodd" clip-rule="evenodd" d="M2.7334 14.6382H13.4001H2.7334Z" stroke="black" stroke-width="2" stroke-linecap="round" stroke-linejoin="round"/>
<path d="M7.99984 4.63818V5.47152" stroke="black" stroke-width="2" stroke-linecap="round" stroke-linejoin="round"/>
<path d="M7.99984 11.3048V10.4715" stroke="black" stroke-width="2" stroke-linecap="round" stroke-linejoin="round"/>
<path d="M9.65767 6.63816C9.61434 5.9875 9.07767 5.4715 8.41634 5.4715H7.50301C6.85634 5.4715 6.33301 5.9955 6.33301 6.6415C6.33301 7.17816 6.69834 7.64616 7.21834 7.77683L8.78034 8.16883C9.30101 8.2995 9.66567 8.7675 9.66567 9.30416C9.66567 9.95083 9.14167 10.4742 8.49567 10.4742H7.58234C6.91967 10.4742 6.38301 9.95683 6.34034 9.30483" stroke="black" stroke-width="2" stroke-linecap="round" stroke-linejoin="round"/>
</svg>
